Coordinates
version=1
nRows=21
nColumns=22
inDegrees=yes

Units are S.I. units (second, meters, Newtons, ...)
If the header above contains a line with 'inDegrees', this indicates whether rotational values are in degrees (yes) or radians (no).

endheader
time	pelvis_tilt	pelvis_list	pelvis_rotation	pelvis_tx	pelvis_ty	pelvis_tz	hip_flexion_r	hip_adduction_r	hip_rotation_r	knee_angle_r	ankle_angle_r	subtalar_angle_r	hip_flexion_l	hip_adduction_l	hip_rotation_l	knee_angle_l	ankle_angle_l	subtalar_angle_l	lumbar_extension	lumbar_bending	lumbar_rotation
      2.92000000	     -2.66515643	     -4.08429772	    -55.59987365	     -0.30913251	      1.00666708	     -0.03238625	     -0.98443609	     14.35202520	      6.12288959	    -16.38061481	     12.19564676	    -10.43819468	     23.29046453	     -9.90544969	      1.97717916	    -30.23849602	      7.99186969	      5.75518873	    -13.99228482	      4.08971831	      7.42674129
      2.93000000	     -2.65580111	     -4.11926160	    -55.91397755	     -0.30426673	      1.00617659	     -0.02730524	     -1.57242046	     14.23905588	      6.47048674	    -16.28252828	     12.54378639	    -10.27693167	     23.49937684	     -9.55661681	      1.89256231	    -28.63758586	      7.72806083	      6.46153097	    -14.10664636	      4.12347112	      7.34207011
      2.94000000	     -2.66082852	     -4.16395862	    -56.22716470	     -0.29938667	      1.00561719	     -0.02214751	     -2.17211244	     14.13629616	      6.79452966	    -16.17031718	     12.89722280	    -10.11046996	     23.69770920	     -9.23667383	      1.70062782	    -27.08018474	      7.48096874	      7.08400202	    -14.22312772	      4.17019996	      7.29726246
      2.95000000	     -2.68297179	     -4.21436438	    -56.53646952	     -0.29446526	      1.00498838	     -0.01689913	     -2.79100626	     14.04180108	      7.09615668	    -16.02145369	     13.24831847	     -9.94188932	     23.89184778	     -8.94297829	      1.41887188	    -25.57213865	      7.25549943	      7.65230952	    -14.33067366	      4.23287284	      7.29252264
      2.96000000	     -2.72617146	     -4.27599551	    -56.83700069	     -0.28950910	      1.00429371	     -0.01157871	     -3.42502765	     13.96703488	      7.40200820	    -15.84886652	     13.58188160	     -9.76693853	     24.07882168	     -8.67528000	      1.09706367	    -24.10948567	      7.06219402	      8.21021166	    -14.43727374	      4.32135184	      7.28241834
      2.97000000	     -2.78203488	     -4.33588765	    -57.14021278	     -0.28451030	      1.00353412	     -0.00617546	     -4.06229966	     13.89381544	      7.69507721	    -15.66424945	     13.90452618	     -9.59611993	     24.25331586	     -8.41958167	      0.76508997	    -22.68335571	      6.89734237	      8.75109366	    -14.53340969	      4.41978093	      7.28990195
      2.98000000	     -2.85565545	     -4.38383909	    -57.44257587	     -0.27947610	      1.00269302	     -0.00069902	     -4.68581986	     13.82366351	      7.97439081	    -15.47504756	     14.21259718	     -9.44142937	     24.42309833	     -8.17111246	      0.47247156	    -21.28232550	      6.76707707	      9.25404983	    -14.60705205	      4.52224356	      7.30935514
      2.99000000	     -2.93992197	     -4.41021005	    -57.76045623	     -0.27439228	      1.00177419	      0.00485942	     -5.28973860	     13.74199307	      8.24646999	    -15.28871587	     14.51042190	     -9.30894365	     24.57887893	     -7.92140077	      0.25618209	    -19.89708194	      6.66663553	      9.70430698	    -14.65059591	      4.62392172	      7.34744528
      3.00000000	     -3.03421903	     -4.42068907	    -58.09154252	     -0.26930225	      1.00078563	      0.01050078	     -5.87117759	     13.65736713	      8.51533135	    -15.11730445	     14.78817903	     -9.19517271	     24.71161009	     -7.67804285	      0.15042113	    -18.51935213	      6.60904137	     10.10272854	    -14.67526748	      4.71910479	      7.39534727
      3.01000000	     -3.14312094	     -4.41266319	    -58.44018610	     -0.26420201	      0.99972159	      0.01622173	     -6.42291264	     13.57262262	      8.78559782	    -14.96588171	     15.04521104	     -9.10200794	     24.82397082	     -7.44652028	      0.18404393	    -17.15337535	      6.59638734	     10.42756271	    -14.67475053	      4.81401238	      7.45077368
      3.02000000	     -3.26443850	     -4.38685757	    -58.81512404	     -0.25911029	      0.99859034	      0.02204198	     -6.94414069	     13.48697160	      9.06043056	    -14.84131669	     15.28291387	     -9.02601018	     24.91002381	     -7.23521628	      0.35616336	    -15.80771667	      6.62765064	     10.66529041	    -14.65185108	      4.90321387	      7.52502654
      3.03000000	     -3.43212053	     -4.32037404	    -59.21570124	     -0.25403898	      0.99732357	      0.02796247	     -7.39143430	     13.42270908	      9.35496783	    -14.75020995	     15.52149004	     -8.98851218	     25.02397100	     -7.06518401	      0.67866214	    -14.51559995	      6.67358151	     10.78440896	    -14.56258696	      5.00825208	      7.60488820
      3.04000000	     -3.54333523	     -4.30177617	    -59.65446625	     -0.24894321	      0.99617127	      0.03405699	     -7.91761314	     13.32452787	      9.65560810	    -14.67820988	     15.69606841	     -8.89459987	     24.99190442	     -6.90998019	      1.05268431	    -13.25441292	      6.81237899	     10.90478130	    -14.55682093	      5.07161239	      7.72893961
      3.05000000	     -3.70093236	     -4.25598302	    -60.11117743	     -0.24386032	      0.99490580	      0.04028083	     -8.39086250	     13.25445189	      9.97992625	    -14.62451733	     15.87442068	     -8.81327453	     24.99566000	     -6.80980707	      1.52894731	    -12.12089657	      6.95394890	     10.94985833	    -14.49683472	      5.15537292	      7.85397298
      3.06000000	     -3.86685304	     -4.21484023	    -60.58300513	     -0.23877350	      0.99361953	      0.04664659	     -8.86151574	     13.19224412	     10.32177366	    -14.59257910	     16.02940593	     -8.72198374	     24.98384823	     -6.75060033	      2.04640027	    -11.13854063	      7.11222057	     10.95753597	    -14.43872429	      5.23954511	      7.98747431
      3.07000000	     -4.03480857	     -4.18555690	    -61.05971791	     -0.23369453	      0.99232939	      0.05314278	     -9.34001073	     13.13636475	     10.67027668	    -14.57666982	     16.16615529	     -8.61042613	     24.96195741	     -6.72646167	      2.57467114	    -10.35091060	      7.27590021	     10.94014896	    -14.39679444	      5.31959736	      8.12097885
      3.08000000	     -4.22795658	     -4.15157934	    -61.52610859	     -0.22863420	      0.99098718	      0.05973393	     -9.78588985	     13.10548919	     11.02475373	    -14.59572481	     16.30795455	     -8.52915288	     24.98220677	     -6.74043483	      3.09745012	     -9.80848031	      7.39892943	     10.93329371	    -14.34160984	      5.41330272	      8.23147289
      3.09000000	     -4.40222542	     -4.14460524	    -61.98911873	     -0.22358350	      0.98969855	      0.06644347	    -10.25831504	     13.07000197	     11.38936548	    -14.64088090	     16.40620936	     -8.41240508	     24.98446931	     -6.77002358	      3.55927499	     -9.52189454	      7.50352507	     10.90198792	    -14.33057691	      5.48948044	      8.33066200
      3.10000000	     -4.54543140	     -4.17619797	    -62.45679775	     -0.21852321	      0.98851484	      0.07329691	    -10.77580317	     13.01953159	     11.76688413	    -14.71219879	     16.44029493	     -8.19163017	     24.94727095	     -6.81027010	      3.89068816	     -9.49413795	      7.55852736	     10.80311231	    -14.37593442	      5.54236436	      8.42198851
      3.11000000	     -4.67006621	     -4.18524801	    -62.90470842	     -0.21341166	      0.98733156	      0.08027493	    -11.25825479	     12.94093025	     12.10767556	    -14.83336857	     16.50943475	     -7.91871168	     24.93797024	     -6.82761505	      4.12733024	     -9.71454545	      7.49175026	     10.64505965	    -14.39978416	      5.55933526	      8.47183029
      3.12000000	     -4.80174332	     -4.18106778	    -63.34506486	     -0.20828888	      0.98616100	      0.08733492	    -11.68256425	     12.86922525	     12.44454248	    -15.03800719	     16.55134909	     -7.66065066	     24.97498335	     -6.85512786	      4.24302154	    -10.18406465	      7.23991300	     10.45506602	    -14.40701148	      5.57211891	      8.49317612
